<svg width="24" height="24" viewBox="0 0 24 24" fill="none" xmlns="http://www.w3.org/2000/svg">
<g id="Frame 43">
<g id="instagram">
<path id="surface1" fill-rule="evenodd" clip-rule="evenodd" d="M2 7.55556C2 4.48731 4.48731 2 7.55556 2H16.4444C19.5127 2 22 4.48731 22 7.55556V16.4444C22 19.5127 19.5127 22 16.4444 22H7.55556C4.48731 22 2 19.5127 2 16.4444V7.55556ZM19.7778 5.33333C19.7778 4.72222 19.2778 4.22222 18.6667 4.22222C18.0556 4.22222 17.5556 4.72222 17.5556 5.33333C17.5556 5.94444 18.0556 6.44444 18.6667 6.44444C19.2778 6.44444 19.7778 5.94444 19.7778 5.33333ZM12 6.44444C15.0682 6.44444 17.5556 8.93175 17.5556 12C17.5556 15.0682 15.0682 17.5556 12 17.5556C8.93175 17.5556 6.44444 15.0682 6.44444 12C6.44444 8.93175 8.93175 6.44444 12 6.44444ZM9.11393 10.3349C9.70922 9.30297 10.8098 8.66706 12.0011 8.66667C13.8426 8.66605 15.336 10.1584 15.3366 12C15.3373 13.8416 13.8449 15.3349 12.0033 15.3356C10.812 15.336 9.71102 14.7008 9.11504 13.6693C8.51905 12.6378 8.51863 11.3667 9.11393 10.3349Z" fill="#F1D69D"/>
</g>
</g>
</svg>
