<svg width="24" height="24" viewBox="0 0 24 24" fill="none" xmlns="http://www.w3.org/2000/svg">
<g id="Frame 42">
<g id="iconmonstr-telegram-1">
<path id="telegram-1" fill-rule="evenodd" clip-rule="evenodd" d="M17.32 20.4524C17.5883 20.642 17.9341 20.6895 18.2425 20.573C18.5508 20.4557 18.7774 20.1929 18.8458 19.8743C19.5699 16.4772 21.3266 7.87883 21.9857 4.78867C22.0357 4.55577 21.9524 4.31371 21.769 4.15817C21.5857 4.00262 21.3316 3.9577 21.1049 4.04171C17.6108 5.33267 6.85022 9.36277 2.45199 10.9873C2.17283 11.0904 1.99117 11.3583 2.00033 11.6519C2.01033 11.9464 2.20866 12.2017 2.49449 12.2874C4.46694 12.8763 7.05605 13.6956 7.05605 13.6956C7.05605 13.6956 8.26602 17.3431 8.89684 19.198C8.97601 19.4309 9.1585 19.6139 9.39933 19.6771C9.63932 19.7395 9.89598 19.6738 10.0751 19.505C11.0885 18.5501 12.6551 17.0736 12.6551 17.0736C12.6551 17.0736 15.6317 19.2521 17.32 20.4524ZM8.14475 13.2329L9.54388 17.8394L9.85471 14.9223C9.85471 14.9223 15.2604 10.0554 18.342 7.28134C18.432 7.19982 18.4445 7.0634 18.3695 6.96775C18.2954 6.87209 18.1587 6.84963 18.0562 6.91451C14.4846 9.19116 8.14475 13.2329 8.14475 13.2329Z" fill="#F1D69D"/>
</g>
</g>
</svg>
