<svg width="40" height="40" viewBox="0 0 40 40" fill="none" xmlns="http://www.w3.org/2000/svg">
<g id="Frame 44">
<g id="Icons">
<g id="Color-">
<g id="Google">
<path id="Fill-1" fill-rule="evenodd" clip-rule="evenodd" d="M10.2102 19.5995C10.2102 18.4563 10.4001 17.3603 10.739 16.3323L4.80736 11.8027C3.65132 14.1499 3 16.7947 3 19.5995C3 22.4019 3.65052 25.0451 4.80496 27.3907L10.7334 22.8523C10.3977 21.8291 10.2102 20.7371 10.2102 19.5995Z" fill="#FBBC05"/>
<path id="Fill-2" fill-rule="evenodd" clip-rule="evenodd" d="M20.6253 9.2C23.1088 9.2 25.352 10.08 27.1145 11.52L32.2417 6.4C29.1173 3.68 25.1116 2 20.6253 2C13.6602 2 7.67408 5.9832 4.80762 11.8032L10.7392 16.3328C12.106 12.184 16.0019 9.2 20.6253 9.2Z" fill="#EB4335"/>
<path id="Fill-3" fill-rule="evenodd" clip-rule="evenodd" d="M20.6253 30C16.0019 30 12.106 27.016 10.7392 22.8672L4.80762 27.396C7.67408 33.2168 13.6602 37.2 20.6253 37.2C24.9242 37.2 29.0284 35.6736 32.1087 32.8136L26.4784 28.4608C24.8897 29.4616 22.8893 30 20.6253 30Z" fill="#34A853"/>
<path id="Fill-4" fill-rule="evenodd" clip-rule="evenodd" d="M37.4489 19.6004C37.4489 18.5604 37.2886 17.4404 37.0483 16.4004H20.625V23.2004H30.0784C29.6057 25.5188 28.3191 27.3012 26.4781 28.4612L32.1085 32.814C35.3443 29.8108 37.4489 25.3372 37.4489 19.6004Z" fill="#4285F4"/>
</g>
</g>
</g>
</g>
</svg>
