<svg width="149" height="167" viewBox="0 0 149 167" fill="none" xmlns="http://www.w3.org/2000/svg">
<g id="Layer_4">
<g id="Group">
<g id="Group_2">
<path id="Vector" d="M5.17518 150.321C5.17518 150.251 5.14049 150.182 5.1058 150.113C5.03642 150.078 4.96704 150.043 4.7936 150.043H1.53282V151.5H3.5101C3.64886 151.5 3.75292 151.465 3.8223 151.43C3.89168 151.396 3.92637 151.292 3.92637 151.083H4.09981V152.887H3.92637C3.92637 152.713 3.89168 152.609 3.8223 152.54C3.75292 152.505 3.64886 152.47 3.5101 152.47H1.53282V154.066H4.89767C5.00173 154.066 5.07111 154.031 5.14049 153.996C5.20987 153.927 5.24456 153.858 5.24456 153.788H5.418V155.383H5.24456C5.24456 155.279 5.20987 155.21 5.14049 155.175C5.07111 155.175 5.00173 155.141 4.89767 155.141H0.21463V154.932C0.249319 154.932 0.318698 154.898 0.353387 154.863C0.388076 154.828 0.422765 154.759 0.422765 154.69V149.384C0.422765 149.315 0.388076 149.246 0.353387 149.211C0.318698 149.176 0.284008 149.142 0.21463 149.142V148.934H4.7936C4.93235 148.934 5.03642 148.899 5.1058 148.864C5.17518 148.83 5.17518 148.76 5.17518 148.656H5.34862V150.182H5.17518V150.321ZM2.88569 148.691H2.05316L2.95507 147.026H4.30795L2.88569 148.691Z" fill="#F0D59E"/>
<path id="Vector_2" d="M12.2868 149.28C12.148 149.28 12.0439 149.35 12.0092 149.454C11.9399 149.558 11.9052 149.662 11.8705 149.731L10.1013 154.239C10.032 154.378 9.99728 154.516 9.96259 154.62C9.9279 154.724 9.89321 154.794 9.89321 154.828C9.89321 154.863 9.89321 154.898 9.9279 154.932C9.9279 154.967 9.96259 154.967 9.99728 155.002V155.21H8.47095V155.002C8.54033 154.967 8.57502 154.932 8.57502 154.828C8.57502 154.794 8.54033 154.724 8.50564 154.586C8.47095 154.482 8.40157 154.308 8.3322 154.135L6.52836 149.592C6.49367 149.523 6.45898 149.454 6.3896 149.419C6.32023 149.384 6.25085 149.35 6.11209 149.315V149.107H7.91593V149.315C7.88124 149.315 7.81186 149.315 7.77717 149.35C7.74248 149.384 7.70779 149.419 7.70779 149.523C7.70779 149.592 7.74248 149.731 7.77717 149.835C7.84655 149.974 7.91593 150.147 7.9853 150.321L9.2688 153.511L10.5176 150.355C10.587 150.147 10.6564 149.974 10.7604 149.8C10.8298 149.627 10.8645 149.523 10.8645 149.454C10.8645 149.315 10.7604 149.28 10.587 149.28V149.072H12.3561V149.28H12.2868Z" fill="#F0D59E"/>
<path id="Vector_3" d="M18.1491 150.321C18.1491 150.251 18.1144 150.182 18.0797 150.113C18.0103 150.078 17.9409 150.043 17.7675 150.043H14.5067V151.5H16.484C16.6227 151.5 16.7268 151.465 16.7962 151.43C16.8656 151.396 16.9002 151.292 16.9002 151.083H17.0737V152.887H16.9002C16.9002 152.713 16.8656 152.609 16.7962 152.54C16.7268 152.505 16.6227 152.47 16.484 152.47H14.5067V154.066H17.8715C17.9756 154.066 18.045 154.031 18.1144 153.996C18.1837 153.927 18.2184 153.858 18.2184 153.788H18.3919V155.383H18.2184C18.2184 155.279 18.1837 155.21 18.1144 155.175C18.045 155.175 17.9756 155.141 17.8715 155.141H13.1885V154.932C13.2232 154.932 13.2926 154.898 13.3273 154.863C13.362 154.828 13.3966 154.759 13.3966 154.69V149.384C13.3966 149.315 13.362 149.246 13.3273 149.211C13.2926 149.176 13.2579 149.142 13.1885 149.142V148.934H17.7675C17.9062 148.934 18.0103 148.899 18.0797 148.864C18.1491 148.83 18.1491 148.76 18.1491 148.656H18.3225V150.182H18.1491V150.321ZM15.8596 148.691H15.027L15.9289 147.026H17.2818L15.8596 148.691Z" fill="#F0D59E"/>
<path id="Vector_4" d="M19.7449 154.967C19.8837 154.967 19.9183 154.898 19.9183 154.759V149.454C19.9183 149.315 19.849 149.246 19.7449 149.246V149.038H21.4447V149.246C21.3753 149.246 21.3753 149.28 21.3753 149.35C21.3753 149.419 21.4447 149.523 21.5834 149.662L24.4626 153.129V149.419C24.4626 149.28 24.3586 149.211 24.1851 149.211V149.003H25.7114V149.211C25.5727 149.211 25.538 149.28 25.538 149.419V154.724C25.538 154.863 25.6074 154.932 25.7114 154.932V155.141H24.081V154.932C24.1851 154.932 24.2198 154.898 24.2198 154.828C24.2198 154.759 24.1504 154.69 24.0464 154.551L20.9937 150.841V154.724C20.9937 154.863 21.0631 154.932 21.2365 154.932V155.141H19.7449V154.967Z" fill="#F0D59E"/>
<path id="Vector_5" d="M32.233 150.321C32.233 150.251 32.1983 150.182 32.1637 150.113C32.0943 150.078 32.0249 150.043 31.8515 150.043H28.5907V151.5H30.568C30.7067 151.5 30.8108 151.465 30.8802 151.43C30.9495 151.396 30.9842 151.292 30.9842 151.084H31.1577V152.887H30.9842C30.9842 152.713 30.9495 152.609 30.8802 152.54C30.8108 152.505 30.7067 152.471 30.568 152.471H28.5907V154.066H31.9555C32.0596 154.066 32.129 154.031 32.1983 153.996C32.2677 153.927 32.3024 153.858 32.3024 153.788H32.4759V155.383H32.3024C32.3024 155.279 32.2677 155.21 32.1983 155.175C32.129 155.175 32.0596 155.141 31.9555 155.141H27.2725V154.933C27.3072 154.933 27.3766 154.898 27.4112 154.863C27.4459 154.829 27.4806 154.759 27.4806 154.69V149.384C27.4806 149.315 27.4459 149.246 27.4112 149.211C27.3766 149.176 27.3419 149.142 27.2725 149.142V148.934H31.8515C31.9902 148.934 32.0943 148.899 32.1637 148.864C32.233 148.83 32.233 148.76 32.233 148.656H32.4065V150.182H32.233V150.321Z" fill="#F0D59E"/>
<path id="Vector_6" d="M33.794 154.967C33.8634 154.967 33.8981 154.932 33.9328 154.897C33.9674 154.863 34.0021 154.793 34.0021 154.724V149.453C34.0021 149.384 33.9674 149.349 33.9328 149.315C33.8981 149.28 33.8287 149.28 33.794 149.28V149.072H35.6672V149.28C35.6325 149.28 35.5978 149.28 35.5631 149.315C35.5285 149.349 35.4938 149.384 35.4938 149.419C35.4938 149.453 35.4938 149.523 35.5285 149.557C35.5631 149.627 35.5978 149.696 35.6325 149.765L37.0548 152.782L38.5117 149.8C38.5464 149.696 38.5811 149.627 38.6158 149.557C38.6505 149.488 38.6505 149.453 38.6505 149.384C38.6505 149.315 38.6158 149.245 38.5117 149.245V149.037H40.3502V149.245C40.2809 149.245 40.2462 149.245 40.2115 149.28C40.1768 149.315 40.1421 149.349 40.1421 149.419V154.724C40.1421 154.793 40.1768 154.863 40.2115 154.897C40.2462 154.932 40.2809 154.967 40.3502 154.967V155.175H38.7892V154.967C38.9627 154.967 39.0667 154.897 39.0667 154.759V150.875H39.0321L37.0201 155.175H36.9854L35.0081 150.875H34.9734V154.759C34.9734 154.897 35.0775 154.967 35.2509 154.967V155.175H33.7593V154.967H33.794Z" fill="#F0D59E"/>
<path id="Vector_7" d="M46.8717 150.321C46.8717 150.251 46.837 150.182 46.8023 150.113C46.733 150.078 46.6636 150.043 46.4901 150.043H43.2294V151.5H45.2066C45.3454 151.5 45.4495 151.465 45.5188 151.43C45.5882 151.396 45.6229 151.292 45.6229 151.084H45.7963V152.887H45.6229C45.6229 152.713 45.5882 152.609 45.5188 152.54C45.4495 152.505 45.3454 152.471 45.2066 152.471H43.2294V154.066H46.5942C46.6983 154.066 46.7676 154.031 46.837 153.996C46.9064 153.927 46.9411 153.858 46.9411 153.788H47.1145V155.383H46.9411C46.9411 155.279 46.9064 155.21 46.837 155.175C46.7676 155.175 46.6983 155.141 46.5942 155.141H41.9112V154.933C41.9459 154.933 42.0152 154.898 42.0499 154.863C42.0846 154.829 42.1193 154.759 42.1193 154.69V149.384C42.1193 149.315 42.0846 149.246 42.0499 149.211C42.0152 149.176 41.9805 149.142 41.9112 149.142V148.934H46.4901C46.6289 148.934 46.733 148.899 46.8023 148.864C46.8717 148.83 46.8717 148.76 46.8717 148.656H47.0452V150.182H46.8717V150.321Z" fill="#F0D59E"/>
<path id="Vector_8" d="M48.4676 154.967C48.6063 154.967 48.641 154.898 48.641 154.759V149.454C48.641 149.315 48.5716 149.246 48.4676 149.246V149.038H50.1673V149.246C50.0979 149.246 50.0979 149.28 50.0979 149.35C50.0979 149.419 50.1673 149.523 50.3061 149.662L53.1853 153.129V149.419C53.1853 149.28 53.0812 149.211 52.9078 149.211V149.003H54.4341V149.211C54.2953 149.211 54.2606 149.28 54.2606 149.419V154.724C54.2606 154.863 54.33 154.932 54.4341 154.932V155.141H52.8037V154.932C52.9078 154.932 52.9425 154.898 52.9425 154.828C52.9425 154.759 52.8731 154.69 52.769 154.551L49.7164 150.841V154.724C49.7164 154.863 49.7857 154.932 49.9592 154.932V155.141H48.4676V154.967Z" fill="#F0D59E"/>
<path id="Vector_9" d="M58.7701 154.759C58.7701 154.898 58.8394 154.967 58.9782 154.967V155.175H57.4172V154.967C57.4519 154.967 57.5213 154.933 57.5559 154.898C57.5906 154.863 57.6253 154.794 57.6253 154.725V150.147H55.9602C55.8909 150.147 55.8562 150.182 55.7868 150.217C55.7174 150.251 55.7174 150.321 55.7174 150.425H55.544V148.795H55.7174C55.7174 148.899 55.7521 148.968 55.7868 149.003C55.8562 149.038 55.8909 149.072 55.9602 149.072H60.4005C60.4698 149.072 60.5045 149.038 60.5739 149.003C60.6433 148.968 60.6433 148.899 60.6433 148.795H60.8167V150.425H60.6433C60.6433 150.321 60.6086 150.251 60.5739 150.217C60.5045 150.182 60.4698 150.147 60.4005 150.147H58.7354V154.759H58.7701Z" fill="#F0D59E"/>
<path id="Vector_10" d="M69.6973 155.417C69.6973 155.313 69.6626 155.244 69.5932 155.209C69.5238 155.175 69.4544 155.175 69.3504 155.175H64.5633V154.967C64.7714 154.967 64.8755 154.897 64.8755 154.759V149.453C64.8755 149.315 64.7714 149.245 64.5633 149.245V149.037H66.2977V149.245C66.1243 149.245 66.0202 149.315 66.0202 149.453V154.1H69.3504C69.4544 154.1 69.5238 154.065 69.5932 154.03C69.6626 153.961 69.6973 153.892 69.6973 153.822H69.8707V155.417H69.6973Z" fill="#F0D59E"/>
<path id="Vector_11" d="M72.16 149.28C72.0212 149.28 71.9518 149.35 71.9518 149.488V152.991C71.9518 153.476 72.0906 153.823 72.3681 153.996C72.6456 154.17 73.0272 154.274 73.5475 154.274C74.0679 154.274 74.4495 154.17 74.727 153.996C75.0045 153.823 75.1432 153.476 75.1432 152.991V149.488C75.1432 149.35 75.0392 149.28 74.831 149.28V149.072H76.4267V149.28C76.2533 149.28 76.1839 149.35 76.1839 149.488V152.921C76.1839 153.372 76.1145 153.754 76.0105 154.066C75.9064 154.378 75.733 154.62 75.4901 154.794C75.2473 154.967 74.9698 155.106 74.6576 155.141C74.3107 155.21 73.9291 155.245 73.4782 155.245C73.0272 155.245 72.6456 155.21 72.2987 155.141C71.9518 155.071 71.6743 154.967 71.4662 154.794C71.2234 154.62 71.0846 154.378 70.9459 154.066C70.8418 153.754 70.7724 153.372 70.7724 152.921V149.488C70.7724 149.35 70.6683 149.28 70.4949 149.28V149.072H72.1253V149.28H72.16Z" fill="#F0D59E"/>
<path id="Vector_12" d="M79.5143 149.28C79.4449 149.28 79.4102 149.28 79.3755 149.315C79.3409 149.349 79.3062 149.384 79.3062 149.453C79.3062 149.523 79.3409 149.557 79.3755 149.661C79.4102 149.731 79.4449 149.835 79.5143 149.904L80.3468 151.118L81.1794 149.904C81.2488 149.8 81.3181 149.696 81.3528 149.627C81.4222 149.557 81.4222 149.488 81.4222 149.453C81.4222 149.349 81.3181 149.315 81.1447 149.315V149.106H83.1914V149.315C83.0179 149.315 82.9138 149.315 82.8445 149.349C82.7751 149.384 82.7057 149.419 82.6363 149.488L80.9019 151.985L82.5669 154.447C82.6016 154.481 82.6363 154.551 82.671 154.62C82.7057 154.689 82.7404 154.759 82.8098 154.793C82.8792 154.863 82.9138 154.897 82.9832 154.932C83.0526 154.967 83.122 155.001 83.1914 155.001V155.209H81.1794V155.001C81.2834 155.001 81.3528 154.932 81.3528 154.828C81.3528 154.759 81.3181 154.724 81.2834 154.655C81.2488 154.585 81.1794 154.516 81.1447 154.412L80.2081 153.025L79.2021 154.481C79.1674 154.551 79.1327 154.585 79.0633 154.689C79.0287 154.759 78.994 154.828 78.994 154.897C78.994 155.001 79.0633 155.071 79.1674 155.071V155.279H77.3289V155.071C77.4676 155.071 77.5717 155.071 77.6411 155.036C77.7105 155.001 77.7798 154.932 77.8492 154.828L79.6184 152.227L77.988 149.835C77.8839 149.661 77.7798 149.557 77.6758 149.488C77.5717 149.419 77.4676 149.384 77.3289 149.384V149.176H79.5143V149.28Z" fill="#F0D59E"/>
<path id="Vector_13" d="M89.2272 150.321C89.2272 150.251 89.1925 150.182 89.1578 150.113C89.0884 150.078 89.019 150.043 88.8456 150.043H85.5848V151.5H87.5621C87.7009 151.5 87.8049 151.465 87.8743 151.43C87.9437 151.396 87.9784 151.292 87.9784 151.084H88.1518V152.887H87.9784C87.9784 152.713 87.9437 152.609 87.8743 152.54C87.8049 152.505 87.7009 152.471 87.5621 152.471H85.5848V154.066H88.9497C89.0537 154.066 89.1231 154.031 89.1925 153.996C89.2619 153.927 89.2966 153.858 89.2966 153.788H89.47V155.383H89.2966C89.2966 155.279 89.2619 155.21 89.1925 155.175C89.1231 155.175 89.0537 155.141 88.9497 155.141H84.2666V154.933C84.3013 154.933 84.3707 154.898 84.4054 154.863C84.4401 154.829 84.4748 154.759 84.4748 154.69V149.384C84.4748 149.315 84.4401 149.246 84.4054 149.211C84.3707 149.176 84.336 149.142 84.2666 149.142V148.934H88.8456C88.9844 148.934 89.0884 148.899 89.1578 148.864C89.2272 148.83 89.2272 148.76 89.2272 148.656H89.4006V150.182H89.2272V150.321Z" fill="#F0D59E"/>
<path id="Vector_14" d="M94.0141 153.268L94.1182 153.337C94.1182 153.407 94.1182 153.476 94.1529 153.511C94.1875 153.615 94.2916 153.684 94.4304 153.788C94.5691 153.892 94.7079 153.962 94.916 154.031C95.0895 154.1 95.2629 154.17 95.4711 154.204C95.6792 154.239 95.8526 154.274 95.9914 154.274C96.0955 154.274 96.2689 154.274 96.4423 154.239C96.6158 154.204 96.7892 154.17 96.9627 154.1C97.1361 154.031 97.2749 153.962 97.4136 153.858C97.5524 153.754 97.5871 153.615 97.5871 153.441C97.5871 153.268 97.5177 153.129 97.4136 153.06C97.3096 152.991 97.1361 152.921 96.9627 152.887C96.7892 152.852 96.5464 152.817 96.3036 152.817C96.0608 152.817 95.8179 152.783 95.5404 152.748C95.2976 152.713 95.0201 152.679 94.7773 152.644C94.5344 152.609 94.3263 152.505 94.1182 152.366C93.9447 152.228 93.7713 152.054 93.6672 151.846C93.5631 151.638 93.4938 151.326 93.4938 150.979C93.4938 150.737 93.5285 150.494 93.6325 150.251C93.7366 150.009 93.8754 149.8 94.0835 149.627C94.2916 149.454 94.5344 149.315 94.8466 149.176C95.1588 149.072 95.5057 149.003 95.922 149.003C96.2689 149.003 96.5811 149.038 96.8586 149.107C97.1361 149.176 97.3443 149.246 97.5524 149.315C97.7258 149.384 97.8993 149.454 98.038 149.523C98.1768 149.592 98.2809 149.627 98.3502 149.627C98.4543 149.627 98.5237 149.592 98.5584 149.558L98.6624 149.662L97.9687 151.118L97.8646 151.083C97.8646 150.979 97.8299 150.875 97.7952 150.806C97.7258 150.702 97.6565 150.633 97.5177 150.529C97.379 150.425 97.2402 150.355 97.0668 150.286C96.8933 150.217 96.7199 150.147 96.5117 150.113C96.3036 150.078 96.1301 150.043 95.922 150.043C95.7832 150.043 95.6098 150.043 95.4711 150.078C95.2976 150.113 95.1588 150.147 95.0548 150.217C94.916 150.286 94.812 150.355 94.7426 150.425C94.6732 150.529 94.6038 150.633 94.6038 150.771C94.6038 150.945 94.6732 151.083 94.7773 151.188C94.8813 151.292 95.0548 151.361 95.2282 151.396C95.4017 151.43 95.6445 151.465 95.8873 151.5C96.1301 151.5 96.373 151.534 96.6505 151.569C96.8933 151.604 97.1708 151.638 97.4136 151.708C97.6565 151.777 97.8646 151.846 98.0727 151.985C98.2462 152.124 98.4196 152.297 98.5237 152.505C98.6278 152.713 98.6971 152.991 98.6971 153.372C98.6971 153.788 98.5931 154.1 98.4196 154.378C98.2462 154.62 98.0034 154.828 97.7258 154.967C97.4483 155.106 97.1708 155.21 96.8239 155.279C96.5117 155.314 96.1995 155.349 95.922 155.349C95.5404 155.349 95.2282 155.314 94.9507 155.279C94.7079 155.245 94.4651 155.175 94.3263 155.106C94.1529 155.037 94.0141 154.967 93.91 154.898C93.806 154.828 93.7366 154.794 93.6325 154.794C93.5978 154.794 93.5285 154.828 93.4938 154.898L93.355 154.794L94.0141 153.268Z" fill="#F0D59E"/>
<path id="Vector_15" d="M103.137 149.003C103.519 149.003 103.866 149.072 104.247 149.211C104.629 149.35 104.976 149.523 105.288 149.8C105.6 150.078 105.843 150.39 106.051 150.771C106.259 151.153 106.363 151.638 106.363 152.158C106.363 152.679 106.259 153.164 106.051 153.545C105.843 153.927 105.6 154.274 105.288 154.516C104.976 154.759 104.629 154.967 104.247 155.071C103.866 155.175 103.484 155.245 103.137 155.245C102.79 155.245 102.409 155.175 102.027 155.071C101.646 154.967 101.299 154.759 100.987 154.516C100.674 154.274 100.431 153.927 100.223 153.545C100.015 153.164 99.9112 152.679 99.9112 152.158C99.9112 151.638 100.015 151.153 100.223 150.771C100.431 150.39 100.674 150.043 100.987 149.8C101.299 149.558 101.646 149.35 102.027 149.211C102.409 149.038 102.756 149.003 103.137 149.003ZM103.137 150.078C102.894 150.078 102.617 150.113 102.374 150.217C102.131 150.321 101.888 150.459 101.68 150.633C101.472 150.806 101.299 151.014 101.195 151.292C101.056 151.534 101.021 151.846 101.021 152.158C101.021 152.471 101.091 152.783 101.195 153.025C101.333 153.268 101.472 153.511 101.68 153.684C101.888 153.858 102.097 153.996 102.374 154.1C102.617 154.204 102.894 154.239 103.137 154.239C103.38 154.239 103.658 154.204 103.9 154.1C104.143 153.996 104.386 153.858 104.594 153.684C104.802 153.511 104.976 153.303 105.08 153.025C105.219 152.783 105.253 152.471 105.253 152.158C105.253 151.846 105.184 151.534 105.08 151.292C104.941 151.049 104.802 150.806 104.594 150.633C104.386 150.459 104.178 150.321 103.9 150.217C103.658 150.113 103.38 150.078 103.137 150.078Z" fill="#F0D59E"/>
<path id="Vector_16" d="M112.608 155.417C112.608 155.313 112.573 155.244 112.504 155.209C112.434 155.175 112.365 155.175 112.261 155.175H107.474V154.967C107.682 154.967 107.786 154.897 107.786 154.759V149.453C107.786 149.315 107.682 149.245 107.474 149.245V149.037H109.208V149.245C109.035 149.245 108.931 149.315 108.931 149.453V154.1H112.261C112.365 154.1 112.434 154.065 112.504 154.03C112.573 153.961 112.608 153.892 112.608 153.822H112.781V155.417H112.608Z" fill="#F0D59E"/>
<path id="Vector_17" d="M113.579 154.967C113.752 154.967 113.856 154.897 113.856 154.759V149.453C113.856 149.315 113.787 149.245 113.579 149.245V149.037H115.243V149.245C115.07 149.245 114.966 149.315 114.966 149.453V154.759C114.966 154.897 115.035 154.967 115.243 154.967V155.175H113.579V154.967Z" fill="#F0D59E"/>
<path id="Vector_18" d="M119.962 149.072C120.343 149.072 120.655 149.141 121.002 149.245C121.315 149.384 121.592 149.557 121.835 149.8C122.078 150.043 122.251 150.355 122.39 150.771C122.529 151.152 122.598 151.603 122.598 152.123C122.598 152.643 122.529 153.094 122.39 153.476C122.251 153.857 122.078 154.169 121.835 154.447C121.592 154.689 121.315 154.897 121.002 155.001C120.69 155.14 120.343 155.175 119.962 155.175H116.632V154.967C116.77 154.967 116.874 154.897 116.874 154.759V149.453C116.874 149.315 116.805 149.245 116.632 149.245V149.037H119.962V149.072ZM119.58 154.204C119.892 154.204 120.17 154.169 120.413 154.1C120.655 154.03 120.829 153.926 121.002 153.753C121.176 153.58 121.28 153.372 121.349 153.129C121.419 152.886 121.453 152.539 121.453 152.123C121.453 151.707 121.419 151.395 121.349 151.118C121.28 150.84 121.141 150.632 121.002 150.494C120.864 150.355 120.655 150.216 120.413 150.147C120.17 150.077 119.892 150.043 119.58 150.043H118.019V154.169H119.58V154.204Z" fill="#F0D59E"/>
<path id="Vector_19" d="M123.153 154.967C123.222 154.967 123.292 154.898 123.361 154.828C123.431 154.759 123.465 154.655 123.5 154.551L125.339 150.009C125.373 149.904 125.443 149.8 125.477 149.731C125.512 149.662 125.547 149.558 125.547 149.523C125.547 149.454 125.512 149.384 125.477 149.35C125.443 149.315 125.373 149.28 125.339 149.28V149.072H127.038V149.28C127.004 149.28 126.934 149.315 126.9 149.35C126.865 149.384 126.83 149.419 126.83 149.523C126.83 149.592 126.83 149.662 126.865 149.696C126.9 149.766 126.934 149.835 126.969 149.939L129.05 154.69C129.085 154.759 129.12 154.828 129.189 154.863C129.258 154.898 129.328 154.932 129.397 154.967V155.175H127.628V154.967C127.663 154.967 127.697 154.967 127.732 154.932C127.767 154.898 127.801 154.863 127.801 154.828C127.801 154.759 127.767 154.655 127.732 154.516L127.35 153.649H124.888L124.541 154.482C124.471 154.655 124.437 154.759 124.437 154.828C124.437 154.898 124.506 154.967 124.61 154.967V155.175H123.188V154.967H123.153ZM126.934 152.817L126.102 150.633L125.165 152.817H126.934Z" fill="#F0D59E"/>
<path id="Vector_20" d="M130.264 154.967C130.438 154.967 130.542 154.897 130.542 154.759V149.453C130.542 149.315 130.438 149.245 130.264 149.245V149.037H131.929V149.245C131.756 149.245 131.651 149.315 131.651 149.453V154.759C131.651 154.897 131.721 154.967 131.929 154.967V155.175H130.264V154.967Z" fill="#F0D59E"/>
<path id="Vector_21" d="M136.786 149.072C137.098 149.072 137.41 149.107 137.653 149.176C137.896 149.246 138.139 149.35 138.312 149.488C138.486 149.627 138.659 149.835 138.729 150.043C138.833 150.286 138.867 150.563 138.867 150.875C138.867 151.396 138.729 151.777 138.486 152.054C138.208 152.332 137.861 152.505 137.445 152.609L138.763 154.828C138.798 154.898 138.867 154.967 138.937 154.967C139.006 154.967 139.076 155.002 139.11 155.002V155.21H137.237V155.002C137.306 155.002 137.341 155.002 137.376 154.967C137.41 154.932 137.445 154.898 137.445 154.863C137.445 154.828 137.445 154.794 137.41 154.724C137.376 154.69 137.341 154.62 137.306 154.516L136.196 152.713H134.774V154.794C134.774 154.863 134.809 154.932 134.843 154.967C134.878 155.002 134.982 155.037 135.086 155.037V155.245H133.352V155.037C133.56 155.037 133.629 154.967 133.629 154.828V149.523C133.629 149.384 133.525 149.315 133.352 149.315V149.107H136.786V149.072ZM136.543 151.777C136.786 151.777 136.994 151.742 137.133 151.708C137.306 151.673 137.41 151.604 137.515 151.534C137.619 151.465 137.688 151.361 137.723 151.257C137.757 151.153 137.792 151.049 137.792 150.91C137.792 150.771 137.757 150.667 137.723 150.563C137.688 150.459 137.619 150.355 137.515 150.286C137.41 150.217 137.306 150.147 137.133 150.113C136.96 150.078 136.786 150.043 136.543 150.043H134.809V151.777H136.543Z" fill="#F0D59E"/>
<path id="Vector_22" d="M145.424 150.321C145.424 150.251 145.389 150.182 145.354 150.113C145.285 150.078 145.216 150.043 145.042 150.043H141.781V151.5H143.759C143.897 151.5 144.001 151.465 144.071 151.43C144.14 151.396 144.175 151.292 144.175 151.084H144.348V152.887H144.175C144.175 152.713 144.14 152.609 144.071 152.54C144.001 152.505 143.897 152.471 143.759 152.471H141.781V154.066H145.146C145.25 154.066 145.32 154.031 145.389 153.996C145.458 153.927 145.493 153.858 145.493 153.788H145.667V155.383H145.493C145.493 155.279 145.458 155.21 145.389 155.175C145.32 155.175 145.25 155.141 145.146 155.141H140.463V154.933C140.498 154.933 140.567 154.898 140.602 154.863C140.637 154.829 140.671 154.759 140.671 154.69V149.384C140.671 149.315 140.637 149.246 140.602 149.211C140.567 149.176 140.533 149.142 140.463 149.142V148.934H145.042C145.181 148.934 145.285 148.899 145.354 148.864C145.424 148.83 145.424 148.76 145.424 148.656H145.597V150.182H145.424V150.321Z" fill="#F0D59E"/>
</g>
<g id="Group_3">
<path id="Vector_23" d="M59.7066 166.861V166.653C59.9494 166.653 60.0882 166.584 60.0882 166.445V161.14C60.0882 161.001 59.9494 160.932 59.7066 160.932V160.724H63.2449C63.904 160.724 64.3896 160.862 64.7712 161.14C65.1528 161.417 65.3262 161.868 65.3262 162.561C65.3262 163.22 65.1528 163.706 64.7712 163.983C64.3896 164.261 63.904 164.399 63.2449 164.399H61.2329V166.48C61.2329 166.619 61.337 166.688 61.5451 166.688V166.896H59.7066V166.861ZM63.3836 163.29C63.5918 163.29 63.7999 163.255 63.9386 163.151C64.1121 163.047 64.1815 162.839 64.1815 162.561C64.1815 162.284 64.1121 162.076 63.9386 161.972C63.7652 161.868 63.5918 161.833 63.3836 161.833H61.2329V163.324H63.3836V163.29Z" fill="#F0D59E"/>
<path id="Vector_24" d="M65.7427 166.653C65.8468 166.653 65.8815 166.583 65.9508 166.514C66.0202 166.445 66.0549 166.341 66.0896 166.237L67.9281 161.694C67.9628 161.59 68.0322 161.486 68.0669 161.417C68.1016 161.347 68.1363 161.243 68.1363 161.209C68.1363 161.139 68.1016 161.07 68.0669 161.035C68.0322 161.001 67.9628 160.966 67.9281 160.966V160.758H69.6279V160.966C69.5932 160.966 69.5238 161.001 69.4891 161.035C69.4544 161.07 69.4198 161.105 69.4198 161.209C69.4198 161.278 69.4198 161.347 69.4544 161.382C69.4891 161.451 69.5238 161.521 69.5585 161.625L71.6399 166.375C71.6746 166.445 71.7092 166.514 71.7786 166.549C71.848 166.583 71.9174 166.618 71.9868 166.653V166.861H70.2176V166.653C70.2523 166.653 70.287 166.653 70.3217 166.618C70.3564 166.583 70.3911 166.549 70.3911 166.514C70.3911 166.445 70.3564 166.341 70.3217 166.202L69.9401 165.335H67.4772L67.1303 166.167C67.0609 166.341 67.0262 166.445 67.0262 166.514C67.0262 166.583 67.0956 166.653 67.1997 166.653V166.861H65.7774V166.653H65.7427ZM69.5238 164.468L68.6913 162.284L67.7547 164.468H69.5238Z" fill="#F0D59E"/>
<path id="Vector_25" d="M76.3573 160.724C76.6696 160.724 76.9818 160.758 77.2246 160.828C77.5021 160.897 77.7102 161.001 77.8837 161.14C78.0571 161.278 78.2306 161.486 78.2999 161.695C78.404 161.937 78.4387 162.215 78.4387 162.527C78.4387 163.047 78.2999 163.428 78.0571 163.706C77.7796 163.983 77.4327 164.157 77.0164 164.261L78.3346 166.48C78.3693 166.549 78.4387 166.619 78.5081 166.619C78.5775 166.619 78.6468 166.653 78.6815 166.653V166.861H76.8083V166.653C76.8777 166.653 76.9124 166.653 76.9471 166.619C76.9818 166.584 77.0164 166.549 77.0164 166.515C77.0164 166.48 77.0164 166.445 76.9818 166.376C76.9471 166.306 76.9124 166.272 76.8777 166.168L75.7676 164.365H74.3454V166.445C74.3454 166.515 74.3801 166.584 74.4148 166.619C74.4494 166.653 74.5535 166.688 74.6576 166.688V166.896H72.9231V166.688C73.1313 166.688 73.2006 166.619 73.2006 166.48V161.174C73.2006 161.036 73.0966 160.966 72.9231 160.966V160.758H76.3573V160.724ZM76.1145 163.463C76.3574 163.463 76.5655 163.428 76.7042 163.394C76.8777 163.359 76.9818 163.29 77.0858 163.22C77.1899 163.151 77.2593 163.047 77.294 162.943C77.3286 162.839 77.3633 162.735 77.3633 162.596C77.3633 162.457 77.3286 162.353 77.294 162.249C77.2593 162.145 77.1899 162.041 77.0858 161.972C76.9818 161.903 76.8777 161.833 76.7042 161.799C76.5308 161.764 76.3574 161.729 76.1145 161.729H74.3801V163.463H76.1145Z" fill="#F0D59E"/>
<path id="Vector_26" d="M80.1038 166.653C80.2772 166.653 80.3812 166.584 80.3812 166.445V161.14C80.3812 161.001 80.2772 160.932 80.1038 160.932V160.724H81.7682V160.932C81.5949 160.932 81.4908 161.001 81.4908 161.14V166.445C81.4908 166.584 81.5602 166.653 81.7682 166.653V166.861H80.1038V166.653Z" fill="#F0D59E"/>
<path id="Vector_27" d="M83.7809 164.919L83.885 164.989C83.885 165.058 83.885 165.127 83.9197 165.162C83.9544 165.266 84.0585 165.336 84.1972 165.44C84.336 165.544 84.4747 165.613 84.6829 165.682C84.8563 165.752 85.0298 165.821 85.2379 165.856C85.446 165.89 85.6195 165.925 85.7582 165.925C85.8623 165.925 86.0357 165.925 86.2092 165.89C86.3826 165.856 86.5561 165.821 86.7295 165.752C86.903 165.682 87.0417 165.613 87.1805 165.509C87.3192 165.405 87.3539 165.266 87.3539 165.093C87.3539 164.919 87.2846 164.781 87.1805 164.711C87.0764 164.642 86.903 164.573 86.7295 164.538C86.5561 164.503 86.3133 164.469 86.0704 164.469C85.8276 164.469 85.5848 164.434 85.3073 164.399C85.0645 164.365 84.7869 164.33 84.5441 164.295C84.3013 164.226 84.0932 164.157 83.885 164.018C83.7116 163.879 83.5381 163.706 83.4341 163.498C83.33 163.29 83.2606 162.978 83.2606 162.631C83.2606 162.388 83.2953 162.145 83.3994 161.903C83.5034 161.66 83.6422 161.452 83.8503 161.278C84.0585 161.105 84.3013 160.966 84.6135 160.828C84.9257 160.724 85.2726 160.654 85.6889 160.654C86.0357 160.654 86.3479 160.689 86.6255 160.758C86.903 160.828 87.1111 160.897 87.3192 160.966C87.4927 161.036 87.6661 161.105 87.8049 161.174C87.9436 161.244 88.0477 161.278 88.1171 161.278C88.2212 161.278 88.2905 161.244 88.3252 161.209L88.4293 161.313L87.7355 162.77L87.6314 162.735C87.6314 162.631 87.5968 162.527 87.5621 162.457C87.4927 162.353 87.4233 162.284 87.2846 162.18C87.1458 162.076 87.007 162.007 86.8336 161.937C86.6601 161.868 86.4867 161.799 86.2786 161.764C86.0704 161.729 85.897 161.695 85.6889 161.695C85.5501 161.695 85.3767 161.695 85.2379 161.729C85.0645 161.764 84.9257 161.799 84.8216 161.868C84.7176 161.937 84.5788 162.007 84.5094 162.076C84.44 162.18 84.3707 162.284 84.3707 162.423C84.3707 162.596 84.44 162.735 84.5441 162.839C84.6482 162.943 84.8216 163.012 84.9951 163.047C85.1685 163.082 85.4113 163.116 85.6542 163.151C85.897 163.151 86.1398 163.186 86.4173 163.22C86.6601 163.255 86.9377 163.29 87.1805 163.359C87.4233 163.428 87.6314 163.498 87.8396 163.636C88.0477 163.775 88.1865 163.949 88.2905 164.157C88.3946 164.365 88.464 164.642 88.464 165.023C88.464 165.44 88.3599 165.752 88.1865 166.029C88.013 166.272 87.7702 166.48 87.4927 166.619C87.2152 166.757 86.9377 166.861 86.5908 166.931C86.2786 166.965 85.9664 167 85.6889 167C85.3073 167 84.9951 166.965 84.7176 166.931C84.4747 166.896 84.2319 166.827 84.0932 166.757C83.9197 166.688 83.781 166.619 83.6769 166.549C83.5728 166.48 83.5034 166.445 83.3994 166.445C83.3647 166.445 83.2953 166.48 83.2606 166.549L83.1219 166.445L83.7809 164.919Z" fill="#F0D59E"/>
</g>
<path id="Vector_28" d="M59.7414 74.4146H60.4005C61.5452 82.182 66.2629 86.6205 73.9986 86.5165C86.5214 86.3431 88.568 71.2591 76.4615 68.7624C72.3335 67.4448 64.9794 65.4682 62.1349 62.6595C55.6134 56.1751 58.4579 44.4893 66.5057 41.5766C80.3814 36.5832 85.4807 49.3786 86.1398 39.9121H86.9723V53.8865H86.2439C84.1625 39.3573 63.1756 39.0452 62.8634 51.7019C62.6206 62.174 77.745 62.0006 84.7522 65.8497C94.0142 70.9124 92.8348 86.031 80.1386 89.3599C67.8933 92.5848 60.5392 82.4941 60.5739 90.5389H59.7067L59.7414 74.4146Z" fill="#F0D59E"/>
<path id="Vector_29" d="M110.249 34.2959H111.914V32.25H36.916V34.2959H38.5811C42.7785 34.2959 46.178 37.6941 46.178 41.8899V89.6386C46.178 93.8344 42.7785 97.2326 38.5811 97.2326H36.916V98.8971H111.879V97.2326H110.214C106.017 97.2326 102.617 93.8344 102.617 89.6386V41.8899C102.652 37.6941 106.051 34.2959 110.249 34.2959ZM94.6734 88.8064C94.6734 93.1409 91.1698 96.6778 86.799 96.6778H78.6817C78.4736 96.6778 77.7798 96.6085 77.1901 96.019C76.7045 95.5682 76.5657 95.0134 76.531 94.8053H72.2296C72.1602 95.0134 71.9867 95.5682 71.5011 96.019C70.9461 96.5391 70.3217 96.6431 70.0788 96.6778H61.2331C56.897 96.6778 53.3587 93.1755 53.3587 88.8064V67.5847H69.4197C66.8874 66.7872 64.4245 65.8163 61.7534 63.8744H53.3934V42.1673C53.3934 37.8328 56.897 34.2959 61.2678 34.2959H70.1135C70.3564 34.3306 70.9461 34.4346 71.5358 34.9547C72.0214 35.4055 72.2296 35.9256 72.2643 36.1684H76.5657C76.6004 35.9603 76.7392 35.4402 77.2248 34.9547C77.8145 34.3652 78.543 34.3306 78.7164 34.2959H86.8337C91.1698 34.2959 94.7081 37.8328 94.7081 42.1673V88.8064H94.6734Z" fill="#F0D59E"/>
<path id="Vector_30" d="M74.6577 119.945C44.0618 119.945 19.155 95.048 19.155 64.4638C19.155 33.8797 44.0618 8.98242 74.6577 8.98242C105.253 8.98242 130.16 33.8797 130.16 64.4638C130.16 95.048 105.253 119.945 74.6577 119.945ZM74.6577 10.6122C44.9291 10.6122 20.7507 34.7813 20.7507 64.4985C20.7507 94.2158 44.9291 118.385 74.6577 118.385C104.386 118.385 128.565 94.2158 128.565 64.4985C128.565 34.7813 104.386 10.6122 74.6577 10.6122Z" fill="#F0D59E"/>
<path id="Vector_31" d="M148.684 73.098C146.013 74.4504 144.105 75.6987 142.857 77.8486C143.065 76.4962 143.238 75.1439 143.377 73.7915L143.446 73.8262C148.337 70.7747 149.656 68.0006 148.719 61.4816C146.117 63.3887 144.418 64.9838 143.689 67.7232V67.2724C143.689 66.0241 143.654 64.7758 143.585 63.5621C147.782 59.9212 148.615 56.9737 146.742 50.7667C144.73 52.7779 143.377 54.4077 142.857 56.6963C142.648 55.3439 142.406 54.0263 142.128 52.7433C145.389 48.8249 145.666 45.9815 143.065 40.572C141.608 42.5832 140.602 44.213 140.359 46.2242C139.943 44.9065 139.492 43.5888 138.971 42.3058C141.296 38.3181 141.087 35.648 137.931 31.0708C136.959 32.978 136.3 34.5037 136.266 36.2029C135.78 35.2319 135.26 34.2957 134.739 33.3594C136.335 29.2677 135.676 26.667 132.034 22.6793C131.374 24.5171 130.993 26.0081 131.062 27.5686C130.542 26.8057 129.987 26.0775 129.397 25.3146C130.16 21.743 129.224 19.5584 125.616 16.5763C125.304 18.0327 125.13 19.2463 125.269 20.4253C124.853 19.9745 124.402 19.5237 123.986 19.073C124.333 15.0506 123.118 13.0047 118.921 10.4733C118.852 12.1031 118.886 13.4555 119.268 14.6691C118.782 14.253 118.297 13.8716 117.811 13.4555C117.672 9.64112 116.423 7.90733 112.261 6.13886C112.4 7.69927 112.608 8.98228 113.197 10.0919C112.538 9.64112 111.879 9.22501 111.22 8.8089C110.734 5.58404 109.52 4.26636 105.843 3.19141C106.121 4.47441 106.433 5.51469 107.023 6.34691C107.543 7.14446 108.341 7.76862 109.555 8.35811C106.849 7.49122 105.392 8.18473 103.311 9.64112C106.815 11.4096 108.653 11.2015 111.255 9.05163L111.22 8.87825C111.914 9.32904 112.608 9.77983 113.301 10.2653C113.822 11.1669 114.62 11.9644 115.868 12.762C112.816 11.3749 111.012 11.9644 108.376 13.3861C112.261 15.9521 114.411 15.9521 117.811 13.8022V13.7329C118.366 14.1837 118.886 14.6344 119.407 15.1199C119.858 16.2295 120.621 17.2698 121.904 18.3794C118.748 16.3682 116.632 16.7497 113.475 17.9287C117.395 21.3616 119.788 21.6737 123.882 19.8012L123.916 19.5237C124.402 20.0439 124.888 20.564 125.339 21.1188C125.581 22.3325 126.171 23.5115 127.316 24.8638C124.506 22.4018 122.355 22.4365 119.06 23.0954C122.39 27.0831 124.714 27.8113 129.05 26.563C129.12 26.3549 129.154 26.1468 129.224 25.9388C129.918 26.875 130.542 27.8113 131.201 28.7822C131.409 29.8225 131.895 30.9321 132.693 32.1458C129.952 28.9556 127.559 28.6782 123.812 28.9209C126.9 33.8449 129.363 34.9892 134.358 34.2957L134.427 34.157C135.19 35.6134 135.919 37.0698 136.578 38.5955C136.751 39.185 136.994 39.8091 137.272 40.5027C134.982 36.9657 132.658 36.3762 128.912 36.0988C131.236 41.3002 133.456 42.8259 138.278 42.8953C139.041 44.9758 139.7 47.0911 140.255 49.2757C138.52 46.0855 136.266 45.1839 132.762 44.3864C134.288 50.0732 136.335 52.0844 141.087 52.986C141.469 54.8238 141.747 56.731 141.955 58.6035C140.602 55.6213 138.486 54.373 135.225 53.0553C135.884 59.193 137.619 61.6896 142.336 63.4234C142.371 64.429 142.406 65.4693 142.406 66.5096C142.406 66.8217 142.406 67.0991 142.406 67.4111C141.4 65.0185 139.596 63.6662 136.959 62.1057C136.717 68.1047 138 70.8094 142.093 73.1674C141.92 75.1092 141.642 77.0164 141.296 78.8889C140.775 75.8374 139.075 73.9996 136.404 71.7803C135.121 78.0913 136.058 81.1081 140.081 84.2983C139.735 85.616 139.353 86.899 138.937 88.1473C138.867 84.7491 137.306 82.4605 134.774 79.5824C132.242 86.3442 132.762 89.8464 136.682 94.1116C135.676 96.4349 134.531 98.6888 133.248 100.908C133.04 101.22 132.831 101.567 132.589 101.948C134.843 96.4002 133.664 93.21 130.958 88.6328C126.761 95.568 126.796 99.417 130.646 105.069C129.467 106.803 128.218 108.502 126.865 110.097C129.016 105.832 128.357 102.503 126.691 97.8912C121.072 104.133 120.239 108.086 122.876 114.536C121.002 116.443 119.06 118.211 116.978 119.91C116.528 120.188 116.042 120.535 115.556 120.916C120.031 116.408 120.17 112.802 119.337 107.219C112.4 112.351 110.908 116.131 112.4 123.309C109.728 125.112 106.953 126.742 104.039 128.163L103.727 128.302C109.555 124.557 110.596 120.743 111.047 114.57C102.409 118.385 99.9114 122.06 99.7727 130.07C96.2691 131.492 92.6614 132.602 88.915 133.399C94.2224 131.215 96.1303 127.817 98.1076 122.407C88.464 123.759 84.891 126.707 82.4975 134.474C82.0465 134.509 81.5956 134.578 81.1793 134.613C80.8324 131.423 78.1266 128.891 74.8312 128.891C71.5357 128.891 68.7953 131.388 68.4831 134.613C67.7893 134.544 67.1302 134.474 66.4364 134.405C64.0428 126.672 60.4352 123.759 50.8263 122.407C52.7342 127.608 54.5727 131.007 59.4639 133.157C55.9256 132.324 52.4567 131.215 49.1612 129.862C48.9878 121.991 46.4555 118.35 37.8872 114.57C38.3382 120.257 39.2054 123.933 43.9231 127.4C41.3908 126.083 38.9626 124.626 36.6037 122.997C37.9913 115.992 36.465 112.247 29.5965 107.219C28.8334 112.351 28.9027 115.853 32.4063 119.876C30.2209 118.107 28.1743 116.235 26.2317 114.189C28.6946 107.982 27.7927 104.029 22.2771 97.9259C20.8202 102.018 20.1264 105.069 21.4793 108.675C20.4733 107.392 19.502 106.075 18.6001 104.688C22.173 99.2089 22.1384 95.3946 18.0103 88.6328C15.6515 92.6205 14.4374 95.5333 15.6515 99.8678C14.5414 97.8913 13.5701 95.8454 12.6335 93.7648C16.2412 89.7077 16.6228 86.1708 14.1945 79.6517C11.9744 82.1484 10.5175 84.1943 10.1359 86.9337C9.82371 85.9627 9.5462 84.9918 9.30337 84.0209C12.9804 80.9347 13.7783 77.9179 12.5642 71.8497C10.2747 73.7568 8.71366 75.3519 7.98519 77.6752C7.74236 76.1148 7.53423 74.5544 7.39547 72.9593C11.1072 70.6707 12.252 67.9313 12.0438 62.1751C9.82371 63.4928 8.19332 64.6718 7.11796 66.4402C7.11796 65.4 7.15265 64.3597 7.18734 63.3194C11.4888 61.5856 13.1192 59.0889 13.7436 53.1594C11.0031 54.269 9.06055 55.3093 7.70767 57.4245C7.91581 55.8988 8.15863 54.4424 8.43614 52.9513C12.807 52.0151 14.7496 49.9345 16.2412 44.4557C13.2926 45.1492 11.246 45.8774 9.65026 47.958C10.1359 46.2589 10.6562 44.5944 11.246 42.9646C15.7209 42.7913 17.8716 41.1962 20.0917 36.2029C16.9003 36.4456 14.7149 36.8964 12.7376 39.2543C13.4314 37.6246 14.1945 36.0295 15.0271 34.4691C19.7795 35.0585 22.2077 33.8449 25.191 29.0249C21.4446 28.7822 19.051 29.0596 16.3106 32.2498C16.6575 31.695 16.935 31.1748 17.1778 30.6894C18.045 29.3024 18.947 27.9153 19.8836 26.5976L19.9183 26.7017C24.2544 27.9153 26.5439 27.2218 29.874 23.2341C26.6133 22.5406 24.4625 22.5059 21.618 25.0025C22.4852 23.9969 23.0403 23.0607 23.3525 22.1591C23.9769 21.4309 24.6013 20.7374 25.2257 20.0439C29.2149 21.847 31.6085 21.4656 35.459 18.102C32.337 16.9231 30.2209 16.5416 27.0295 18.5528C28.0008 17.7206 28.6599 16.9577 29.1456 16.1255C29.874 15.432 30.6372 14.7732 31.4004 14.149C34.6611 16.1602 36.8119 16.0908 40.593 13.5942C37.9566 12.1725 36.1528 11.583 33.1001 12.97C33.9674 12.4152 34.6265 11.8604 35.1121 11.2362C36.014 10.5774 36.8812 9.9532 37.8179 9.36371C40.3849 11.4096 42.1887 11.583 45.6576 9.88385C43.6109 8.42746 42.1193 7.73395 39.4136 8.60084C40.3502 8.15006 41.0439 7.6646 41.5296 7.10978C41.9806 6.83237 42.4315 6.58964 42.9172 6.34691C42.4662 6.58964 42.0152 6.83237 41.599 7.07511C42.4315 6.10418 42.8131 4.95988 43.1253 3.39946C39.3442 4.47441 38.1647 5.86145 37.7138 9.29436L37.7832 9.32904C36.9853 9.84918 36.1875 10.3693 35.4243 10.8895C36.2915 9.64112 36.569 8.21941 36.7425 6.34691C32.4757 8.15006 31.2616 9.9532 31.1922 14.0103L31.2269 14.045C30.6372 14.5304 30.0475 15.0159 29.4925 15.5013C30.1169 14.0796 30.1516 12.5539 30.0822 10.6467C25.7113 13.2474 24.6013 15.3626 25.0522 19.7318C24.5666 20.2519 24.081 20.7374 23.63 21.2575C23.9075 19.8705 23.7341 18.4835 23.3525 16.7497C19.5714 19.8705 18.7388 22.1244 19.7101 26.0081C19.0857 26.875 18.4266 27.7073 17.8369 28.6088C18.1491 26.771 17.6981 25.0372 16.935 22.8526C13.1192 27.0137 12.5988 29.6491 14.4374 34.0876C13.813 35.2319 13.2232 36.3762 12.6335 37.5205C12.911 35.336 12.2173 33.5328 11.0031 31.2095C7.70767 35.9948 7.63829 38.6995 10.2747 42.9646C9.65026 44.5944 9.09524 46.2589 8.60959 47.9233C8.78304 45.1492 7.74236 43.2074 5.90384 40.7107C3.23277 46.2935 3.61435 49.137 7.15265 53.2287L7.32609 53.194C6.94451 55.0665 6.59762 57.0084 6.3548 58.9502C6.32011 55.4826 4.82847 53.4714 2.22679 50.9054C0.353573 57.2164 1.2208 60.1639 5.62632 63.8742L5.93853 63.7702C5.86915 64.9838 5.83446 66.1628 5.83446 67.3765C5.83446 68.174 5.83446 68.9716 5.86915 69.7344C5.79977 70.0812 5.76508 70.4626 5.6957 70.8441C5.55694 66.0935 3.68373 64.1169 0.284194 61.5856C-0.652413 68.1047 0.631086 70.8787 5.55695 73.9302C5.76508 73.8262 5.93853 73.7222 6.11197 73.6528C6.28542 75.7334 6.59762 77.8139 6.94451 79.8598C5.79977 76.4269 3.64904 74.9358 0.284194 73.202C0.422951 80.1372 2.22679 82.8072 7.81174 85.1305L8.05456 84.9571C8.50552 86.6216 8.99117 88.2514 9.5462 89.8465C7.67298 85.9974 5.00192 84.6451 0.839221 83.2927C2.1921 90.9214 4.65503 93.5914 11.246 95.1865L11.5235 94.9091C11.9744 95.9147 12.4254 96.8857 12.911 97.8566C10.7256 96.1228 8.15863 95.4986 4.75909 95.0478C7.56892 102.538 10.5869 104.896 17.2819 105.416C18.1491 106.734 19.051 107.982 19.9876 109.23C16.9697 107.184 13.917 107.011 9.75433 107.254C14.2986 114.64 17.941 116.408 25.3991 115.437C26.3357 116.408 27.307 117.344 28.313 118.246C25.4685 117.448 22.7281 117.899 19.2245 118.801C24.9482 124.938 28.8334 126.083 35.4937 123.933C36.8812 124.904 38.3035 125.805 39.7604 126.672C36.2568 126.291 33.3083 127.47 29.5965 129.412C37.2281 134.613 41.6684 134.89 48.3287 130.937C51.1385 132.116 54.0524 133.087 57.0356 133.885C52.977 134.336 50.1672 136.381 46.733 139.641C55.995 142.762 60.5392 141.722 66.1936 135.653C66.9567 135.757 67.6852 135.827 68.4484 135.896C68.7953 139.086 71.501 141.618 74.7965 141.618C78.092 141.618 80.8324 139.121 81.1446 135.896C81.6996 135.861 82.22 135.792 82.7403 135.723C88.3946 141.756 92.9389 142.762 102.166 139.676C98.8361 136.52 96.0956 134.474 92.2104 133.954C95.159 133.191 98.0035 132.22 100.779 131.111C107.335 134.925 111.74 134.613 119.303 129.446C115.799 127.608 112.955 126.464 109.728 126.638C111.116 125.84 112.434 124.973 113.752 124.072C120.205 126.048 124.055 124.834 129.675 118.835C126.449 117.969 123.882 117.518 121.28 118.073C122.182 117.24 123.084 116.373 123.951 115.507C131.062 116.339 134.67 114.466 139.11 107.254C135.364 107.046 132.554 107.15 129.848 108.641C130.646 107.566 131.409 106.491 132.138 105.381C138.486 104.792 141.365 102.33 144.105 95.0478C141.122 95.4293 138.763 95.9494 136.751 97.2671C137.098 96.5736 137.445 95.8454 137.757 95.1172C144.244 93.5221 146.707 90.8521 148.025 83.258C144.66 84.3677 142.267 85.4773 140.463 87.9046C140.775 86.9337 141.053 85.9974 141.296 85.0265C146.811 82.5645 148.546 79.8945 148.684 73.098Z" fill="#F0D59E"/>
<path id="Vector_32" d="M134.393 64.7755C134.393 97.8216 107.474 124.73 74.415 124.73C41.3563 124.73 14.4375 97.8563 14.4375 64.7755C14.4375 31.6947 39.2749 6.93609 70.5645 4.95957C70.7727 4.85554 70.9461 4.71684 71.0502 4.57813C68.6219 3.81526 69.2464 -0.0684344 71.848 0.000917355C73.2703 0.000917355 74.311 0.729111 74.5885 2.49758C74.7272 3.43383 74.6579 4.1967 74.415 4.85554C73.7213 6.72804 71.6052 7.56026 69.3157 7.90702H69.281C68.7607 7.9417 68.2404 8.01105 67.6853 8.0804C39.3096 11.4093 17.2126 35.5784 17.2126 64.8448C17.2126 96.3652 42.8479 121.991 74.3804 121.991C105.913 121.991 131.548 96.3652 131.548 64.8448C131.548 35.9945 110.006 12.0335 82.1507 8.25378C81.4916 8.14975 80.8672 8.0804 80.2081 8.01105H80.1734C77.988 7.62961 76.0454 6.72804 75.4557 4.92489C75.2476 4.30073 75.1782 3.57253 75.317 2.70564C75.5945 0.937166 76.6698 0.208973 78.0574 0.208973C80.6591 0.139621 81.2835 4.02332 78.8206 4.78619C78.9246 4.92489 79.0287 5.02892 79.2021 5.09827C110.075 7.52558 134.393 33.3591 134.393 64.7755Z" fill="#F0D59E"/>
</g>
</g>
</svg>
