<svg width="154" height="167" viewBox="0 0 154 167" fill="none" xmlns="http://www.w3.org/2000/svg">
<g id="Layer_3">
<g id="Group">
<path id="Vector" d="M55.9318 83.1398H56.8792C58.4707 94.0913 65.1401 100.344 76.0537 100.192C93.7124 99.9649 96.5545 78.7062 79.5399 75.1441C73.7042 73.3252 63.3212 70.521 59.3802 66.58C50.1719 57.4475 54.1887 40.9635 65.557 36.8709C85.1104 29.8226 92.3103 47.8603 93.1819 34.5215H94.3566V54.1886H93.3335C90.3777 33.6878 60.8202 33.271 60.4033 51.1192C60.0623 65.86 81.3589 65.6327 91.2493 71.0515C104.285 78.1757 102.618 99.4722 84.7315 104.209C67.4896 108.756 57.1066 94.546 57.1444 105.876H55.9318V83.1398Z" fill="#F0D59E"/>
<g id="Group_2">
<path id="Vector_2" d="M5.75996 150.894C5.75996 150.818 5.72207 150.743 5.68417 150.705C5.60838 150.667 5.53259 150.629 5.38102 150.629H2.04632V152.107H4.05472C4.2063 152.107 4.28208 152.069 4.35787 152.031C4.43366 151.993 4.47155 151.879 4.47155 151.69H4.66103V153.547H4.47155C4.47155 153.357 4.43366 153.244 4.35787 153.206C4.28208 153.168 4.1684 153.13 4.05472 153.13H2.04632V154.759H5.45681C5.57049 154.759 5.64628 154.721 5.72207 154.684C5.79785 154.646 5.83575 154.57 5.83575 154.456H6.02522V156.086H5.83575C5.83575 155.972 5.79785 155.896 5.72207 155.896C5.64628 155.896 5.57049 155.858 5.45681 155.858H0.682129V155.631C0.720023 155.631 0.757917 155.631 0.795812 155.593C0.833706 155.555 0.833706 155.517 0.833706 155.441V150.023C0.833706 149.947 0.833706 149.909 0.795812 149.871C0.757917 149.833 0.720023 149.833 0.682129 149.833V149.606H5.38102C5.53259 149.606 5.60838 149.568 5.68417 149.53C5.75996 149.492 5.75996 149.416 5.75996 149.303H5.94943V150.894H5.75996ZM3.44841 149.227H2.57684L3.5242 147.521H4.92629L3.44841 149.227Z" fill="#F0D59E"/>
<path id="Vector_3" d="M13.0736 149.832C12.922 149.832 12.8462 149.908 12.7704 150.022C12.6946 150.135 12.6567 150.249 12.6188 150.287L10.7999 154.91C10.7241 155.061 10.6862 155.213 10.6483 155.289C10.6104 155.365 10.5725 155.44 10.5725 155.478C10.5725 155.516 10.5725 155.554 10.6104 155.592C10.6104 155.63 10.6483 155.63 10.6862 155.668V155.895H9.13256V155.668C9.20835 155.63 9.20835 155.592 9.20835 155.516C9.20835 155.478 9.17045 155.403 9.13256 155.289C9.09467 155.175 9.01888 155.024 8.94309 154.834L7.08627 150.173C7.04838 150.097 7.01048 150.022 6.93469 149.984C6.8589 149.946 6.78312 149.908 6.66943 149.87V149.643H8.52625V149.87C8.48836 149.87 8.45046 149.87 8.37468 149.908C8.33678 149.946 8.29889 149.984 8.29889 150.059C8.29889 150.135 8.33678 150.249 8.37468 150.4C8.45046 150.552 8.48836 150.704 8.60204 150.893L9.92834 154.19L11.2167 150.969C11.2925 150.779 11.3683 150.59 11.4441 150.4C11.5199 150.249 11.5578 150.135 11.5578 150.059C11.5578 149.946 11.4441 149.87 11.2546 149.87V149.643H13.0736V149.832Z" fill="#F0D59E"/>
<path id="Vector_4" d="M19.061 150.894C19.061 150.818 19.0231 150.743 18.9852 150.705C18.9094 150.667 18.8336 150.629 18.682 150.629H15.3473V152.107H17.3557C17.5073 152.107 17.5831 152.069 17.6589 152.031C17.7347 151.993 17.7726 151.879 17.7726 151.69H17.9621V153.547H17.7726C17.7726 153.357 17.7347 153.244 17.6589 153.206C17.5831 153.168 17.4694 153.13 17.3557 153.13H15.3473V154.759H18.7578C18.8715 154.759 18.9473 154.721 19.0231 154.684C19.0989 154.646 19.1368 154.57 19.1368 154.456H19.3262V156.086H19.1368C19.1368 155.972 19.0989 155.896 19.0231 155.896C18.9473 155.896 18.8715 155.858 18.7578 155.858H13.9832V155.631C14.021 155.631 14.0589 155.631 14.0968 155.593C14.1347 155.555 14.1347 155.517 14.1347 155.441V150.023C14.1347 149.947 14.1347 149.909 14.0968 149.871C14.0589 149.833 14.021 149.833 13.9832 149.833V149.606H18.682C18.8336 149.606 18.9094 149.568 18.9852 149.53C19.061 149.492 19.061 149.416 19.061 149.303H19.2505V150.894H19.061ZM16.7115 149.227H15.84L16.7873 147.521H18.1894L16.7115 149.227Z" fill="#F0D59E"/>
<path id="Vector_5" d="M20.6523 155.669C20.766 155.669 20.8418 155.594 20.8418 155.442V150.023C20.8418 149.872 20.766 149.796 20.6523 149.796V149.568H22.3955V149.796C22.3576 149.796 22.3197 149.834 22.3197 149.909C22.3197 149.985 22.3955 150.099 22.5092 150.25L25.4649 153.813V150.023C25.4649 149.872 25.3891 149.796 25.1997 149.796V149.568H26.7533V149.796C26.6396 149.796 26.5638 149.872 26.5638 150.023V155.442C26.5638 155.594 26.6396 155.669 26.7533 155.669V155.897H25.086V155.669C25.1618 155.669 25.2375 155.631 25.2375 155.556C25.2375 155.518 25.1997 155.404 25.086 155.29L21.9407 151.501V155.48C21.9407 155.631 22.0165 155.707 22.1681 155.707V155.935H20.6523V155.669Z" fill="#F0D59E"/>
<path id="Vector_6" d="M33.4606 150.894C33.4606 150.819 33.4227 150.743 33.3849 150.705C33.3091 150.667 33.2333 150.629 33.0817 150.629H29.747V152.107H31.7554C31.907 152.107 31.9828 152.069 32.0586 152.031C32.1343 151.993 32.1722 151.88 32.1722 151.69H32.3996V153.547H32.2101C32.2101 153.357 32.1722 153.244 32.0964 153.206C32.0207 153.168 31.907 153.13 31.7933 153.13H29.747V154.76H33.1575C33.2712 154.76 33.347 154.722 33.4227 154.684C33.4985 154.646 33.5364 154.57 33.5364 154.456H33.7259V156.086H33.5364C33.5364 155.972 33.4985 155.896 33.4227 155.896C33.347 155.896 33.2712 155.858 33.1575 155.858H28.3828V155.631C28.4207 155.631 28.4586 155.631 28.4965 155.593C28.5344 155.555 28.5344 155.517 28.5344 155.442V150.023C28.5344 149.947 28.5344 149.909 28.4965 149.871C28.4586 149.833 28.4207 149.833 28.3828 149.833V149.606H33.0817C33.2333 149.606 33.3091 149.568 33.3849 149.53C33.4606 149.492 33.4606 149.416 33.4606 149.303H33.6501V150.894H33.4606Z" fill="#F0D59E"/>
<path id="Vector_7" d="M35.0522 155.669C35.0901 155.669 35.1659 155.669 35.2038 155.631C35.2417 155.593 35.2796 155.555 35.2796 155.479V150.022C35.2796 149.947 35.2417 149.909 35.2038 149.871C35.1659 149.833 35.128 149.833 35.0522 149.833V149.605H36.9849V149.833C36.947 149.833 36.9091 149.833 36.8712 149.871C36.8333 149.909 36.8333 149.947 36.8333 149.984C36.8333 150.022 36.8333 150.06 36.8712 150.136C36.9091 150.212 36.947 150.25 36.947 150.325L38.4248 153.433L39.9027 150.363C39.9406 150.25 39.9785 150.174 40.0164 150.136C40.0543 150.06 40.0543 150.022 40.0543 149.984C40.0543 149.909 40.0164 149.871 39.9027 149.871V149.643H41.7974V149.871C41.7595 149.871 41.6837 149.871 41.6458 149.909C41.608 149.947 41.5701 149.984 41.5701 150.06V155.517C41.5701 155.593 41.608 155.631 41.6458 155.669C41.6837 155.706 41.7216 155.706 41.7974 155.706V155.934H40.168V155.706C40.3574 155.706 40.4332 155.631 40.4332 155.479V151.5H40.3953L38.349 155.896H38.3112L36.3028 151.5H36.2649V155.479C36.2649 155.631 36.3785 155.706 36.568 155.706V155.934H35.0522V155.669Z" fill="#F0D59E"/>
<path id="Vector_8" d="M48.4667 150.894C48.4667 150.819 48.4289 150.743 48.391 150.705C48.3152 150.667 48.2394 150.629 48.0878 150.629H44.7531V152.107H46.7615C46.9131 152.107 46.9889 152.069 47.0647 152.031C47.1404 151.993 47.1783 151.88 47.1783 151.69H47.3678V153.547H47.1783C47.1783 153.357 47.1404 153.244 47.0647 153.206C46.9889 153.168 46.8752 153.13 46.7615 153.13H44.7531V154.76H48.1636C48.2773 154.76 48.3531 154.722 48.4289 154.684C48.5046 154.646 48.5425 154.57 48.5425 154.456H48.732V156.086H48.5425C48.5425 155.972 48.5046 155.896 48.4289 155.896C48.3531 155.896 48.2773 155.858 48.1636 155.858H43.3889V155.631C43.4268 155.631 43.4647 155.631 43.5026 155.593C43.5405 155.555 43.5405 155.517 43.5405 155.442V150.023C43.5405 149.947 43.5405 149.909 43.5026 149.871C43.4647 149.833 43.4268 149.833 43.3889 149.833V149.606H48.0878C48.2394 149.606 48.3152 149.568 48.391 149.53C48.4667 149.492 48.4667 149.416 48.4667 149.303H48.6562V150.894H48.4667Z" fill="#F0D59E"/>
<path id="Vector_9" d="M50.0962 155.669C50.2099 155.669 50.2857 155.594 50.2857 155.442V150.023C50.2857 149.872 50.2099 149.796 50.0962 149.796V149.568H51.8393V149.796C51.8014 149.796 51.7635 149.834 51.7635 149.909C51.7635 149.985 51.8393 150.099 51.953 150.25L54.9088 153.813V150.023C54.9088 149.872 54.833 149.796 54.6435 149.796V149.568H56.1972V149.796C56.0835 149.796 56.0077 149.872 56.0077 150.023V155.442C56.0077 155.594 56.0835 155.669 56.1972 155.669V155.897H54.5298V155.669C54.6056 155.669 54.6814 155.631 54.6814 155.556C54.6814 155.518 54.6435 155.404 54.5298 155.29L51.3846 151.501V155.48C51.3846 155.631 51.4604 155.707 51.612 155.707V155.935H50.0962V155.669Z" fill="#F0D59E"/>
<path id="Vector_10" d="M60.6308 155.442C60.6308 155.593 60.7066 155.669 60.8582 155.669V155.896H59.3045V155.669C59.3424 155.669 59.3803 155.669 59.4182 155.631C59.4561 155.593 59.4561 155.555 59.4561 155.479V150.743H57.7887C57.7129 150.743 57.675 150.781 57.5992 150.819C57.5235 150.856 57.5235 150.932 57.5235 151.046H57.334V149.303H57.5235C57.5235 149.416 57.5613 149.492 57.5992 149.53C57.675 149.568 57.7129 149.606 57.7887 149.606H62.336C62.4118 149.606 62.4497 149.568 62.5255 149.53C62.6013 149.492 62.6013 149.416 62.6013 149.303H62.7908V150.97H62.6013C62.6013 150.856 62.5634 150.781 62.5255 150.743C62.4497 150.705 62.4118 150.667 62.336 150.667H60.6308V155.442Z" fill="#F0D59E"/>
<path id="Vector_11" d="M71.8098 156.124C71.8098 156.01 71.7719 155.935 71.6961 155.935C71.6203 155.935 71.5445 155.897 71.4308 155.897H66.5425V155.669C66.732 155.669 66.8456 155.594 66.8456 155.442V150.023C66.8456 149.872 66.732 149.796 66.5425 149.796V149.568H68.3235V149.796C68.134 149.796 68.0204 149.872 68.0204 150.023V154.76H71.4308C71.5445 154.76 71.6203 154.722 71.6961 154.684C71.7719 154.646 71.8098 154.57 71.8098 154.457H71.9993V156.086H71.8098V156.124Z" fill="#F0D59E"/>
<path id="Vector_12" d="M74.3484 149.833C74.1968 149.833 74.121 149.909 74.121 150.06V153.66C74.121 154.153 74.2726 154.494 74.5379 154.683C74.8031 154.873 75.22 154.949 75.7505 154.949C76.281 154.949 76.6979 154.873 76.9631 154.683C77.2284 154.494 77.38 154.153 77.38 153.66V150.06C77.38 149.909 77.2663 149.833 77.0768 149.833V149.605H78.7063V149.833C78.5547 149.833 78.4789 149.909 78.4789 150.06V153.584C78.4789 154.039 78.4031 154.456 78.2894 154.759C78.1757 155.062 77.9863 155.328 77.7589 155.479C77.5315 155.669 77.2284 155.782 76.8873 155.858C76.5463 155.934 76.1294 155.972 75.6747 155.972C75.22 155.972 74.841 155.934 74.4621 155.858C74.121 155.782 73.8179 155.669 73.5905 155.479C73.3632 155.29 73.1737 155.062 73.06 154.759C72.9463 154.456 72.8705 154.077 72.8705 153.584V150.06C72.8705 149.909 72.7569 149.833 72.5674 149.833V149.605H74.2347V149.833H74.3484Z" fill="#F0D59E"/>
<path id="Vector_13" d="M81.8517 149.832C81.8138 149.832 81.738 149.832 81.7002 149.87C81.6623 149.908 81.6244 149.946 81.6244 150.022C81.6244 150.06 81.6244 150.136 81.6623 150.211C81.7001 150.287 81.738 150.363 81.8138 150.477L82.6475 151.689L83.4812 150.439C83.557 150.325 83.6328 150.249 83.6707 150.136C83.7085 150.06 83.7464 149.984 83.7464 149.946C83.7464 149.832 83.6707 149.795 83.4812 149.795V149.567H85.5654V149.795C85.4138 149.795 85.2622 149.795 85.1864 149.832C85.1106 149.87 85.0348 149.908 84.997 149.984L83.2159 152.523L84.9212 155.062C84.9591 155.1 84.9969 155.176 85.0348 155.213C85.0727 155.289 85.1106 155.327 85.1864 155.403C85.2622 155.479 85.3001 155.517 85.3759 155.554C85.4517 155.592 85.5275 155.63 85.6033 155.63V155.858H83.557V155.63C83.6707 155.63 83.7085 155.554 83.7085 155.441C83.7085 155.403 83.6706 155.327 83.6328 155.251C83.5949 155.176 83.5191 155.1 83.4812 155.024L82.5338 153.584L81.5107 155.062C81.4728 155.1 81.4349 155.176 81.397 155.251C81.3591 155.327 81.3212 155.403 81.3212 155.479C81.3212 155.592 81.397 155.63 81.5107 155.63V155.858H79.616V155.63C79.7296 155.63 79.8433 155.63 79.9191 155.592C79.9949 155.554 80.0707 155.479 80.1465 155.365L81.9275 152.712L80.2602 150.249C80.1465 150.06 80.0328 149.946 79.957 149.87C79.8433 149.795 79.7296 149.757 79.616 149.757V149.529H81.8517V149.832Z" fill="#F0D59E"/>
<path id="Vector_14" d="M91.78 150.894C91.78 150.819 91.7421 150.743 91.7042 150.705C91.6284 150.667 91.5526 150.629 91.401 150.629H88.0663V152.107H90.0747C90.2263 152.107 90.3021 152.069 90.3779 152.031C90.4537 151.993 90.4916 151.88 90.4916 151.69H90.681V153.547H90.4916C90.4916 153.357 90.4537 153.244 90.3779 153.206C90.3021 153.168 90.1884 153.13 90.0747 153.13H88.0663V154.76H91.4768C91.5905 154.76 91.6663 154.722 91.7421 154.684C91.8179 154.646 91.8558 154.57 91.8558 154.456H92.0452V156.086H91.8558C91.8558 155.972 91.8179 155.896 91.7421 155.896C91.6663 155.896 91.5905 155.858 91.4768 155.858H86.7021V155.631C86.74 155.631 86.7779 155.631 86.8158 155.593C86.8537 155.555 86.8537 155.517 86.8537 155.442V150.023C86.8537 149.947 86.8537 149.909 86.8158 149.871C86.7779 149.833 86.74 149.833 86.7021 149.833V149.606H91.401C91.5526 149.606 91.6284 149.568 91.7042 149.53C91.78 149.492 91.78 149.416 91.78 149.303H91.9694V150.894H91.78Z" fill="#F0D59E"/>
<path id="Vector_15" d="M96.6682 153.926L96.7819 154.002C96.7819 154.078 96.7819 154.154 96.8198 154.191C96.8577 154.305 96.9713 154.381 97.085 154.457C97.2366 154.533 97.3882 154.646 97.5776 154.684C97.7671 154.722 97.9566 154.798 98.1461 154.874C98.3355 154.911 98.525 154.949 98.6766 154.949C98.7903 154.949 98.9418 154.949 99.1313 154.911C99.3208 154.874 99.5102 154.836 99.6618 154.798C99.8513 154.722 100.003 154.646 100.117 154.532C100.23 154.419 100.306 154.267 100.306 154.078C100.306 153.888 100.23 153.775 100.117 153.661C100.003 153.547 99.8513 153.509 99.6618 153.471C99.4724 153.434 99.245 153.396 98.9797 153.396C98.7145 153.396 98.4871 153.358 98.2218 153.358C97.9566 153.32 97.6913 153.282 97.464 153.244C97.1987 153.206 97.0092 153.093 96.7819 152.979C96.5924 152.865 96.4408 152.676 96.3271 152.448C96.2134 152.221 96.1377 151.918 96.1377 151.577C96.1377 151.311 96.1756 151.084 96.2892 150.857C96.4029 150.629 96.5545 150.402 96.744 150.213C96.9334 150.023 97.1987 149.872 97.5397 149.758C97.8808 149.644 98.2218 149.568 98.6387 149.568C99.0176 149.568 99.3208 149.606 99.586 149.682C99.8513 149.758 100.079 149.796 100.268 149.872C100.458 149.947 100.609 150.023 100.761 150.061C100.912 150.137 100.988 150.175 101.102 150.175C101.215 150.175 101.253 150.137 101.291 150.099L101.405 150.213L100.685 151.69L100.571 151.653C100.571 151.539 100.533 151.463 100.496 151.387C100.458 151.274 100.344 151.198 100.23 151.122C100.117 151.046 99.965 150.933 99.7755 150.895C99.586 150.819 99.4345 150.781 99.2071 150.705C98.9797 150.629 98.8282 150.629 98.6008 150.629C98.4492 150.629 98.2976 150.629 98.1461 150.667C97.9945 150.705 97.8429 150.743 97.6913 150.781C97.5397 150.819 97.464 150.895 97.3503 151.008C97.2745 151.084 97.2366 151.198 97.2366 151.349C97.2366 151.539 97.3124 151.69 97.4261 151.766C97.5397 151.842 97.6913 151.918 97.8808 151.994C98.0703 152.031 98.2976 152.069 98.5629 152.107C98.8282 152.145 99.0555 152.145 99.3208 152.183C99.586 152.221 99.8513 152.259 100.079 152.297C100.344 152.373 100.533 152.448 100.761 152.6C100.95 152.714 101.102 152.903 101.215 153.13C101.329 153.358 101.405 153.661 101.405 154.002C101.405 154.419 101.329 154.76 101.14 155.025C100.95 155.29 100.723 155.48 100.42 155.631C100.154 155.783 99.8513 155.897 99.5103 155.935C99.1692 155.972 98.8661 156.01 98.6008 156.01C98.2218 156.01 97.8808 155.972 97.6155 155.935C97.3503 155.897 97.1229 155.821 96.9713 155.745C96.7819 155.669 96.6682 155.594 96.5545 155.556C96.4408 155.518 96.365 155.48 96.2892 155.48C96.2513 155.48 96.2134 155.518 96.1377 155.594L95.9861 155.48L96.6682 153.926Z" fill="#F0D59E"/>
<path id="Vector_16" d="M106.028 149.529C106.407 149.529 106.786 149.605 107.165 149.719C107.544 149.832 107.923 150.06 108.226 150.325C108.529 150.59 108.795 150.931 109.022 151.31C109.211 151.727 109.325 152.182 109.325 152.75C109.325 153.281 109.211 153.773 109.022 154.19C108.832 154.607 108.567 154.91 108.226 155.176C107.923 155.441 107.544 155.63 107.165 155.744C106.786 155.858 106.407 155.933 106.028 155.933C105.649 155.933 105.27 155.858 104.891 155.744C104.512 155.63 104.134 155.441 103.83 155.176C103.527 154.91 103.262 154.569 103.035 154.19C102.845 153.773 102.731 153.319 102.731 152.75C102.731 152.22 102.845 151.727 103.035 151.31C103.224 150.893 103.489 150.59 103.83 150.325C104.134 150.06 104.512 149.87 104.891 149.719C105.27 149.605 105.649 149.529 106.028 149.529ZM106.028 150.628C105.763 150.628 105.498 150.666 105.232 150.78C104.967 150.893 104.74 151.007 104.512 151.197C104.285 151.386 104.134 151.613 104.02 151.841C103.906 152.106 103.83 152.409 103.83 152.75C103.83 153.091 103.906 153.395 104.02 153.66C104.134 153.925 104.323 154.152 104.512 154.304C104.74 154.493 104.967 154.607 105.232 154.721C105.498 154.834 105.763 154.872 106.028 154.872C106.293 154.872 106.559 154.834 106.824 154.721C107.089 154.607 107.317 154.493 107.544 154.304C107.771 154.115 107.923 153.887 108.037 153.66C108.15 153.395 108.226 153.091 108.226 152.75C108.226 152.409 108.15 152.106 108.037 151.841C107.923 151.576 107.733 151.348 107.544 151.197C107.355 151.045 107.089 150.893 106.824 150.78C106.559 150.666 106.293 150.628 106.028 150.628Z" fill="#F0D59E"/>
<path id="Vector_17" d="M115.729 156.124C115.729 156.01 115.691 155.935 115.615 155.935C115.54 155.935 115.464 155.897 115.35 155.897H110.462V155.669C110.651 155.669 110.765 155.594 110.765 155.442V150.023C110.765 149.872 110.651 149.796 110.462 149.796V149.568H112.243V149.796C112.053 149.796 111.94 149.872 111.94 150.023V154.76H115.35C115.464 154.76 115.54 154.722 115.615 154.684C115.691 154.646 115.729 154.57 115.729 154.457H115.918V156.086H115.729V156.124Z" fill="#F0D59E"/>
<path id="Vector_18" d="M116.752 155.669C116.942 155.669 117.017 155.594 117.017 155.442V150.023C117.017 149.872 116.942 149.796 116.752 149.796V149.568H118.457V149.796C118.268 149.796 118.192 149.872 118.192 150.023V155.442C118.192 155.594 118.268 155.669 118.457 155.669V155.897H116.752V155.669Z" fill="#F0D59E"/>
<path id="Vector_19" d="M123.27 149.606C123.649 149.606 123.99 149.682 124.331 149.796C124.672 149.909 124.937 150.099 125.165 150.364C125.392 150.629 125.582 150.933 125.733 151.349C125.885 151.728 125.923 152.221 125.923 152.751C125.923 153.282 125.847 153.737 125.733 154.154C125.62 154.57 125.392 154.874 125.165 155.139C124.937 155.404 124.634 155.594 124.331 155.707C124.028 155.821 123.649 155.897 123.27 155.897H119.86V155.669C120.011 155.669 120.087 155.594 120.087 155.442V150.023C120.087 149.872 120.011 149.796 119.86 149.796V149.568H123.27V149.606ZM122.853 154.874C123.156 154.874 123.46 154.836 123.687 154.76C123.914 154.684 124.142 154.57 124.293 154.419C124.445 154.267 124.559 154.04 124.634 153.775C124.71 153.509 124.748 153.168 124.748 152.751C124.748 152.335 124.71 151.994 124.634 151.728C124.559 151.463 124.445 151.236 124.293 151.084C124.142 150.933 123.952 150.819 123.687 150.743C123.46 150.667 123.156 150.629 122.853 150.629H121.262V154.874H122.853Z" fill="#F0D59E"/>
<path id="Vector_20" d="M126.529 155.669C126.605 155.669 126.681 155.594 126.756 155.518C126.794 155.442 126.87 155.328 126.908 155.215L128.803 150.554C128.841 150.44 128.879 150.364 128.916 150.25C128.954 150.175 128.954 150.099 128.954 150.023C128.954 149.947 128.916 149.872 128.879 149.872C128.841 149.834 128.765 149.834 128.727 149.796V149.568H130.47V149.796C130.432 149.796 130.356 149.834 130.318 149.872C130.281 149.909 130.243 149.947 130.243 150.061C130.243 150.137 130.243 150.175 130.281 150.25C130.318 150.326 130.356 150.402 130.394 150.516L132.516 155.366C132.554 155.442 132.592 155.518 132.668 155.556C132.744 155.594 132.782 155.631 132.857 155.669V155.897H131.038V155.669C131.076 155.669 131.114 155.669 131.152 155.631C131.19 155.594 131.228 155.556 131.228 155.518C131.228 155.442 131.19 155.328 131.152 155.215L130.773 154.343H128.272L127.893 155.177C127.817 155.328 127.78 155.48 127.78 155.518C127.78 155.594 127.855 155.631 127.969 155.631V155.859H126.529V155.669ZM130.394 153.434L129.523 151.198L128.575 153.434H130.394Z" fill="#F0D59E"/>
<path id="Vector_21" d="M133.805 155.669C133.994 155.669 134.07 155.594 134.07 155.442V150.023C134.07 149.872 133.994 149.796 133.805 149.796V149.568H135.51V149.796C135.32 149.796 135.245 149.872 135.245 150.023V155.442C135.245 155.594 135.32 155.669 135.51 155.669V155.897H133.805V155.669Z" fill="#F0D59E"/>
<path id="Vector_22" d="M140.512 149.606C140.853 149.606 141.156 149.644 141.421 149.72C141.687 149.796 141.914 149.909 142.104 150.061C142.293 150.213 142.445 150.402 142.558 150.629C142.672 150.857 142.71 151.16 142.71 151.501C142.71 152.031 142.558 152.41 142.293 152.714C142.028 152.979 141.649 153.168 141.232 153.282L142.596 155.556C142.634 155.631 142.71 155.669 142.748 155.707C142.824 155.707 142.861 155.745 142.937 155.745V155.972H141.005V155.745C141.08 155.745 141.118 155.745 141.156 155.707C141.194 155.669 141.232 155.669 141.232 155.594C141.232 155.556 141.232 155.518 141.194 155.442C141.156 155.366 141.118 155.328 141.08 155.215L139.944 153.358H138.466V155.48C138.466 155.556 138.504 155.594 138.541 155.631C138.579 155.669 138.655 155.669 138.769 155.669V155.897H136.988V155.669C137.177 155.669 137.291 155.594 137.291 155.442V150.023C137.291 149.872 137.177 149.796 136.988 149.796V149.568H140.512V149.606ZM140.247 152.41C140.512 152.41 140.701 152.373 140.853 152.335C141.005 152.297 141.156 152.221 141.232 152.145C141.346 152.069 141.384 151.956 141.421 151.88C141.459 151.766 141.497 151.653 141.497 151.539C141.497 151.425 141.459 151.311 141.421 151.198C141.384 151.084 141.308 151.008 141.232 150.933C141.118 150.857 141.005 150.781 140.853 150.743C140.701 150.705 140.474 150.667 140.247 150.667H138.466V152.448H140.247V152.41Z" fill="#F0D59E"/>
<path id="Vector_23" d="M149.341 150.894C149.341 150.819 149.303 150.743 149.265 150.705C149.19 150.667 149.114 150.629 148.962 150.629H145.628V152.107H147.636C147.788 152.107 147.863 152.069 147.939 152.031C148.015 151.993 148.053 151.88 148.053 151.69H148.242V153.547H148.053C148.053 153.357 148.015 153.244 147.939 153.206C147.863 153.168 147.75 153.13 147.636 153.13H145.628V154.76H149.038C149.152 154.76 149.228 154.722 149.303 154.684C149.379 154.646 149.417 154.57 149.417 154.456H149.607V156.086H149.417C149.417 155.972 149.379 155.896 149.303 155.896C149.228 155.896 149.152 155.858 149.038 155.858H144.263V155.631C144.301 155.631 144.339 155.631 144.377 155.593C144.415 155.555 144.415 155.517 144.415 155.442V150.023C144.415 149.947 144.415 149.909 144.377 149.871C144.339 149.833 144.301 149.833 144.263 149.833V149.606H148.962C149.114 149.606 149.19 149.568 149.265 149.53C149.341 149.492 149.341 149.416 149.341 149.303H149.531V150.894H149.341Z" fill="#F0D59E"/>
</g>
<g id="Group_3">
<path id="Vector_24" d="M61.616 166.887V166.66C61.8812 166.66 61.9949 166.584 61.9949 166.432V161.013C61.9949 160.862 61.8812 160.786 61.616 160.786V160.559H65.2159C65.8601 160.559 66.3906 160.71 66.7696 160.975C67.1485 161.241 67.338 161.733 67.338 162.415C67.338 163.098 67.1485 163.59 66.7696 163.855C66.3906 164.121 65.8601 164.272 65.2159 164.272H63.1696V166.394C63.1696 166.546 63.2833 166.622 63.5107 166.622V166.849H61.616V166.887ZM65.3296 163.211C65.557 163.211 65.7464 163.173 65.898 163.06C66.0496 162.946 66.1254 162.756 66.1254 162.453C66.1254 162.15 66.0496 161.961 65.898 161.847C65.7464 161.733 65.557 161.695 65.3296 161.695H63.1317V163.211H65.3296Z" fill="#F0D59E"/>
<path id="Vector_25" d="M67.7927 166.66C67.8685 166.66 67.9443 166.584 68.0201 166.508C68.058 166.432 68.1338 166.319 68.1717 166.205L70.0664 161.544C70.1043 161.43 70.1422 161.354 70.1801 161.241C70.218 161.165 70.218 161.089 70.218 161.013C70.218 160.938 70.1801 160.862 70.1422 160.862C70.1043 160.824 70.0285 160.824 69.9906 160.786V160.559H71.7337V160.786C71.6958 160.786 71.62 160.824 71.5822 160.862C71.5443 160.9 71.5064 160.938 71.5064 161.051C71.5064 161.127 71.5064 161.165 71.5443 161.241C71.5822 161.316 71.62 161.392 71.6579 161.506L73.78 166.356C73.8179 166.432 73.8558 166.508 73.9316 166.546C74.0074 166.584 74.0453 166.622 74.1211 166.66V166.887H72.3021V166.66C72.34 166.66 72.3779 166.66 72.4158 166.622C72.4537 166.584 72.4916 166.546 72.4916 166.508C72.4916 166.432 72.4537 166.319 72.4158 166.205L72.0369 165.333H69.5359L69.1569 166.167C69.0811 166.319 69.0432 166.47 69.0432 166.508C69.0432 166.584 69.119 166.622 69.2327 166.622V166.849H67.7927V166.66ZM71.6579 164.424L70.7864 162.188L69.839 164.424H71.6579Z" fill="#F0D59E"/>
<path id="Vector_26" d="M78.6306 160.596C78.9717 160.596 79.2748 160.634 79.5401 160.71C79.8053 160.786 80.0327 160.9 80.2222 161.051C80.4116 161.203 80.5632 161.392 80.6769 161.62C80.7906 161.847 80.8285 162.15 80.8285 162.491C80.8285 163.022 80.6769 163.401 80.4116 163.704C80.1464 163.969 79.7674 164.159 79.3506 164.272L80.7148 166.546C80.7527 166.622 80.8285 166.66 80.8664 166.697C80.9422 166.697 80.9801 166.735 81.0558 166.735V166.963H79.1232V166.735C79.199 166.735 79.2369 166.735 79.2748 166.697C79.3127 166.66 79.3506 166.66 79.3506 166.584C79.3506 166.546 79.3506 166.508 79.3127 166.432C79.2748 166.356 79.2369 166.319 79.199 166.205L78.0622 164.348H76.5843V166.47C76.5843 166.546 76.6222 166.584 76.6601 166.622C76.698 166.66 76.7738 166.66 76.8875 166.66V166.887H75.1064V166.66C75.2959 166.66 75.4096 166.584 75.4096 166.432V161.013C75.4096 160.862 75.2959 160.786 75.1064 160.786V160.559H78.6306V160.596ZM78.3654 163.401C78.6306 163.401 78.8201 163.363 78.9717 163.325C79.1232 163.287 79.2748 163.211 79.3506 163.135C79.4643 163.06 79.5022 162.946 79.5401 162.87C79.578 162.756 79.6159 162.643 79.6159 162.529C79.6159 162.415 79.578 162.302 79.5401 162.188C79.5022 162.074 79.4264 161.999 79.3506 161.923C79.2369 161.847 79.1232 161.771 78.9717 161.733C78.8201 161.695 78.5927 161.658 78.3654 161.658H76.5843V163.439H78.3654V163.401Z" fill="#F0D59E"/>
<path id="Vector_27" d="M82.4578 166.66C82.6472 166.66 82.723 166.584 82.723 166.432V161.013C82.723 160.862 82.6472 160.786 82.4578 160.786V160.559H84.163V160.786C83.9735 160.786 83.8977 160.862 83.8977 161.013V166.432C83.8977 166.584 83.9735 166.66 84.163 166.66V166.887H82.4578V166.66Z" fill="#F0D59E"/>
<path id="Vector_28" d="M86.2094 164.916L86.3231 164.992C86.3231 165.068 86.3231 165.144 86.361 165.182C86.3989 165.295 86.5126 165.371 86.6263 165.447C86.7779 165.523 86.9294 165.636 87.1189 165.674C87.3084 165.712 87.4978 165.788 87.6873 165.864C87.8768 165.902 88.0663 165.94 88.2178 165.94C88.3315 165.94 88.4831 165.94 88.6726 165.902C88.862 165.864 89.0515 165.826 89.2031 165.788C89.3926 165.712 89.5441 165.636 89.6578 165.523C89.7715 165.409 89.8473 165.257 89.8473 165.068C89.8473 164.879 89.7715 164.765 89.6578 164.651C89.5441 164.575 89.3926 164.5 89.2031 164.462C89.0136 164.424 88.7863 164.386 88.521 164.386C88.2557 164.386 88.0284 164.348 87.7631 164.348C87.4978 164.31 87.2326 164.272 87.0052 164.234C86.74 164.196 86.5505 164.083 86.3231 163.969C86.1337 163.855 85.9821 163.666 85.8684 163.439C85.7547 163.211 85.6789 162.908 85.6789 162.567C85.6789 162.302 85.7168 162.074 85.8305 161.847C85.9442 161.62 86.0958 161.392 86.2852 161.203C86.4747 161.013 86.74 160.862 87.081 160.748C87.3842 160.634 87.7631 160.559 88.1799 160.559C88.5589 160.559 88.862 160.596 89.1273 160.672C89.3926 160.748 89.6199 160.786 89.8094 160.862C89.9989 160.938 90.1504 161.013 90.302 161.051C90.4536 161.127 90.5294 161.165 90.6431 161.165C90.7568 161.165 90.7946 161.127 90.8325 161.089L90.9462 161.203L90.2262 162.681L90.1126 162.643C90.1126 162.529 90.0747 162.453 90.0368 162.378C89.9989 162.264 89.8852 162.188 89.7715 162.112C89.6578 162.036 89.5062 161.923 89.3168 161.885C89.1273 161.809 88.9757 161.771 88.7484 161.695C88.5589 161.658 88.3694 161.62 88.1421 161.62C87.9905 161.62 87.8389 161.62 87.6873 161.658C87.5357 161.695 87.3842 161.733 87.2326 161.771C87.1189 161.809 87.0052 161.885 86.8915 161.999C86.8158 162.074 86.7779 162.188 86.7779 162.34C86.7779 162.529 86.8536 162.681 86.9673 162.756C87.081 162.87 87.2326 162.908 87.4221 162.984C87.6115 163.022 87.8389 163.06 88.1042 163.098C88.3694 163.098 88.5968 163.135 88.862 163.173C89.1273 163.211 89.3926 163.249 89.6199 163.287C89.8852 163.363 90.0747 163.439 90.302 163.59C90.4915 163.704 90.6431 163.893 90.7568 164.121C90.8704 164.348 90.9462 164.651 90.9462 164.992C90.9462 165.409 90.8704 165.75 90.681 166.015C90.4915 166.281 90.2641 166.47 89.961 166.622C89.6957 166.773 89.3926 166.887 89.0515 166.925C88.7105 166.963 88.4073 167.001 88.1421 167.001C87.7631 167.001 87.4221 166.963 87.1568 166.925C86.8915 166.887 86.6642 166.811 86.5126 166.735C86.361 166.66 86.2094 166.584 86.0958 166.546C85.9821 166.47 85.9063 166.47 85.8305 166.47C85.7926 166.47 85.7547 166.508 85.6789 166.584L85.5273 166.47L86.2094 164.916Z" fill="#F0D59E"/>
</g>
<path id="Vector_29" d="M127.097 26.5636H129.409V23.6836H23.8354V26.5636H26.1849C32.0964 26.5636 36.8711 31.3382 36.8711 37.2497V104.588C36.8711 110.499 32.0964 115.274 26.1849 115.274H23.8354V117.623H129.447V115.274H127.135C121.224 115.274 116.449 110.499 116.449 104.588V37.2497C116.411 31.3761 121.224 26.5636 127.097 26.5636ZM105.194 103.413C105.194 109.552 100.23 114.516 94.0914 114.516H82.6473C82.3821 114.516 81.3589 114.44 80.5253 113.607C79.8432 112.962 79.6537 112.205 79.6158 111.901H73.5527C73.4769 112.205 73.2117 112.962 72.4917 113.607C71.6959 114.327 70.8243 114.478 70.5212 114.516H58.054C51.9151 114.516 46.9509 109.552 46.9509 103.413V73.4766H69.5738C66.0118 72.3398 62.5634 70.9756 58.7361 68.2472H46.9509V37.6666C46.9509 31.5277 51.9151 26.5636 58.054 26.5636H70.5591C70.8622 26.6015 71.7717 26.753 72.5296 27.473C73.2496 28.1172 73.4769 28.8372 73.5906 29.1783H79.6537C79.7295 28.8751 79.919 28.1172 80.5632 27.473C81.3968 26.6772 82.42 26.5636 82.6852 26.5636H94.0914C100.23 26.5636 105.194 31.5277 105.194 37.6666V103.413Z" fill="#F0D59E"/>
<path id="Vector_30" d="M153.244 141.005H0V0H153.244V141.005ZM9.8904 131.114H143.392V9.85251H9.8904V131.114Z" fill="#F0D59E"/>
<path id="Vector_31" d="M139.906 128.045H13.0356V13.0742H139.906V128.045ZM14.8546 126.226H138.087V14.8931H14.8546V126.226Z" fill="#F0D59E"/>
</g>
</g>
</svg>
